<mxfile host="Electron" modified="2023-12-17T08:57:13.672Z" agent="Mozilla/5.0 (Windows NT 10.0; Win64; x64) AppleWebKit/537.36 (KHTML, like Gecko) draw.io/22.1.2 Chrome/114.0.5735.289 Electron/25.9.4 Safari/537.36" etag="RJkP3d4YU3uSKOFV8W3N" version="22.1.2" type="device">
  <diagram name="Page-1" id="ye5FJDCixLeKfXq1sUfF">
    <mxGraphModel dx="863" dy="512" grid="1" gridSize="10" guides="1" tooltips="1" connect="1" arrows="1" fold="1" page="1" pageScale="1" pageWidth="850" pageHeight="1100" math="0" shadow="0">
      <root>
        <mxCell id="0" />
        <mxCell id="1" parent="0" />
        <mxCell id="7AeS7Z2tnM7rHtkFox5K-1" value="N" style="rounded=0;whiteSpace=wrap;html=1;fontFamily=Computer Modern;" vertex="1" parent="1">
          <mxGeometry x="220" y="250" width="20" height="20" as="geometry" />
        </mxCell>
        <mxCell id="7AeS7Z2tnM7rHtkFox5K-2" value="Z" style="rounded=0;whiteSpace=wrap;html=1;fontFamily=Computer Modern;" vertex="1" parent="1">
          <mxGeometry x="240" y="250" width="20" height="20" as="geometry" />
        </mxCell>
        <mxCell id="7AeS7Z2tnM7rHtkFox5K-3" value="C" style="rounded=0;whiteSpace=wrap;html=1;fontFamily=Computer Modern;" vertex="1" parent="1">
          <mxGeometry x="260" y="250" width="20" height="20" as="geometry" />
        </mxCell>
        <mxCell id="7AeS7Z2tnM7rHtkFox5K-4" value="V" style="rounded=0;whiteSpace=wrap;html=1;fontFamily=Computer Modern;" vertex="1" parent="1">
          <mxGeometry x="280" y="250" width="20" height="20" as="geometry" />
        </mxCell>
        <mxCell id="7AeS7Z2tnM7rHtkFox5K-9" value="CPU mode" style="rounded=0;whiteSpace=wrap;html=1;fontFamily=Computer Modern;" vertex="1" parent="1">
          <mxGeometry x="530" y="250" width="70" height="20" as="geometry" />
        </mxCell>
        <mxCell id="7AeS7Z2tnM7rHtkFox5K-10" value="I" style="rounded=0;whiteSpace=wrap;html=1;fontFamily=Computer Modern;" vertex="1" parent="1">
          <mxGeometry x="470" y="250" width="20" height="20" as="geometry" />
        </mxCell>
        <mxCell id="7AeS7Z2tnM7rHtkFox5K-11" value="F" style="rounded=0;whiteSpace=wrap;html=1;fontFamily=Computer Modern;" vertex="1" parent="1">
          <mxGeometry x="490" y="250" width="20" height="20" as="geometry" />
        </mxCell>
        <mxCell id="7AeS7Z2tnM7rHtkFox5K-12" value="T" style="rounded=0;whiteSpace=wrap;html=1;fontFamily=Computer Modern;" vertex="1" parent="1">
          <mxGeometry x="510" y="250" width="20" height="20" as="geometry" />
        </mxCell>
        <mxCell id="7AeS7Z2tnM7rHtkFox5K-13" value="Reserved" style="rounded=0;whiteSpace=wrap;html=1;fontFamily=Computer Modern;fontStyle=2;fillColor=#f5f5f5;fontColor=#333333;strokeColor=#0D0D0D;" vertex="1" parent="1">
          <mxGeometry x="300" y="250" width="170" height="20" as="geometry" />
        </mxCell>
        <mxCell id="7AeS7Z2tnM7rHtkFox5K-15" value="31" style="text;html=1;strokeColor=none;fillColor=none;align=center;verticalAlign=middle;whiteSpace=wrap;rounded=0;fontFamily=Computer Modern;" vertex="1" parent="1">
          <mxGeometry x="220" y="230" width="20" height="20" as="geometry" />
        </mxCell>
        <mxCell id="7AeS7Z2tnM7rHtkFox5K-16" value="0" style="text;html=1;strokeColor=none;fillColor=none;align=center;verticalAlign=middle;whiteSpace=wrap;rounded=0;fontFamily=Computer Modern;" vertex="1" parent="1">
          <mxGeometry x="584" y="230" width="20" height="20" as="geometry" />
        </mxCell>
        <mxCell id="7AeS7Z2tnM7rHtkFox5K-17" value="4" style="text;html=1;strokeColor=none;fillColor=none;align=center;verticalAlign=middle;whiteSpace=wrap;rounded=0;fontFamily=Computer Modern;" vertex="1" parent="1">
          <mxGeometry x="528" y="230" width="20" height="20" as="geometry" />
        </mxCell>
        <mxCell id="7AeS7Z2tnM7rHtkFox5K-18" value="30" style="text;html=1;strokeColor=none;fillColor=none;align=center;verticalAlign=middle;whiteSpace=wrap;rounded=0;fontFamily=Computer Modern;" vertex="1" parent="1">
          <mxGeometry x="240" y="230" width="20" height="20" as="geometry" />
        </mxCell>
        <mxCell id="7AeS7Z2tnM7rHtkFox5K-19" value="29" style="text;html=1;strokeColor=none;fillColor=none;align=center;verticalAlign=middle;whiteSpace=wrap;rounded=0;fontFamily=Computer Modern;" vertex="1" parent="1">
          <mxGeometry x="260" y="230" width="20" height="20" as="geometry" />
        </mxCell>
        <mxCell id="7AeS7Z2tnM7rHtkFox5K-20" value="28" style="text;html=1;strokeColor=none;fillColor=none;align=center;verticalAlign=middle;whiteSpace=wrap;rounded=0;fontFamily=Computer Modern;" vertex="1" parent="1">
          <mxGeometry x="280" y="230" width="20" height="20" as="geometry" />
        </mxCell>
        <mxCell id="7AeS7Z2tnM7rHtkFox5K-21" value="27" style="text;html=1;strokeColor=none;fillColor=none;align=center;verticalAlign=middle;whiteSpace=wrap;rounded=0;fontFamily=Computer Modern;" vertex="1" parent="1">
          <mxGeometry x="300" y="230" width="20" height="20" as="geometry" />
        </mxCell>
        <mxCell id="7AeS7Z2tnM7rHtkFox5K-22" value="8" style="text;html=1;strokeColor=none;fillColor=none;align=center;verticalAlign=middle;whiteSpace=wrap;rounded=0;fontFamily=Computer Modern;" vertex="1" parent="1">
          <mxGeometry x="454" y="230" width="20" height="20" as="geometry" />
        </mxCell>
        <mxCell id="7AeS7Z2tnM7rHtkFox5K-23" value="5" style="text;html=1;strokeColor=none;fillColor=none;align=center;verticalAlign=middle;whiteSpace=wrap;rounded=0;fontFamily=Computer Modern;" vertex="1" parent="1">
          <mxGeometry x="510" y="230" width="20" height="20" as="geometry" />
        </mxCell>
        <mxCell id="7AeS7Z2tnM7rHtkFox5K-24" value="7" style="text;html=1;strokeColor=none;fillColor=none;align=center;verticalAlign=middle;whiteSpace=wrap;rounded=0;fontFamily=Computer Modern;" vertex="1" parent="1">
          <mxGeometry x="470" y="230" width="20" height="20" as="geometry" />
        </mxCell>
        <mxCell id="7AeS7Z2tnM7rHtkFox5K-25" value="6" style="text;html=1;strokeColor=none;fillColor=none;align=center;verticalAlign=middle;whiteSpace=wrap;rounded=0;fontFamily=Computer Modern;" vertex="1" parent="1">
          <mxGeometry x="490" y="230" width="20" height="20" as="geometry" />
        </mxCell>
        <mxCell id="7AeS7Z2tnM7rHtkFox5K-26" value="" style="shape=curlyBracket;whiteSpace=wrap;html=1;rounded=1;labelPosition=left;verticalLabelPosition=middle;align=right;verticalAlign=middle;rotation=90;" vertex="1" parent="1">
          <mxGeometry x="250" y="180" width="20" height="80" as="geometry" />
        </mxCell>
        <mxCell id="7AeS7Z2tnM7rHtkFox5K-27" value="" style="shape=curlyBracket;whiteSpace=wrap;html=1;rounded=1;labelPosition=left;verticalLabelPosition=middle;align=right;verticalAlign=middle;rotation=90;" vertex="1" parent="1">
          <mxGeometry x="335" y="180" width="20" height="80" as="geometry" />
        </mxCell>
        <mxCell id="7AeS7Z2tnM7rHtkFox5K-28" value="" style="shape=curlyBracket;whiteSpace=wrap;html=1;rounded=1;labelPosition=left;verticalLabelPosition=middle;align=right;verticalAlign=middle;rotation=90;" vertex="1" parent="1">
          <mxGeometry x="420.25" y="178.75" width="20" height="82.5" as="geometry" />
        </mxCell>
        <mxCell id="7AeS7Z2tnM7rHtkFox5K-29" value="" style="shape=curlyBracket;whiteSpace=wrap;html=1;rounded=1;labelPosition=left;verticalLabelPosition=middle;align=right;verticalAlign=middle;rotation=90;" vertex="1" parent="1">
          <mxGeometry x="525.63" y="159.38" width="20" height="121.25" as="geometry" />
        </mxCell>
        <mxCell id="7AeS7Z2tnM7rHtkFox5K-31" value="&lt;b&gt;F&lt;/b&gt;lag bits" style="text;html=1;strokeColor=none;fillColor=none;align=center;verticalAlign=middle;whiteSpace=wrap;rounded=0;fontFamily=Computer Modern;" vertex="1" parent="1">
          <mxGeometry x="235" y="190" width="50" height="20" as="geometry" />
        </mxCell>
        <mxCell id="7AeS7Z2tnM7rHtkFox5K-32" value="&lt;b&gt;S&lt;/b&gt;tatus bits" style="text;html=1;strokeColor=none;fillColor=none;align=center;verticalAlign=middle;whiteSpace=wrap;rounded=0;fontFamily=Computer Modern;" vertex="1" parent="1">
          <mxGeometry x="310" y="190" width="70" height="20" as="geometry" />
        </mxCell>
        <mxCell id="7AeS7Z2tnM7rHtkFox5K-33" value="&lt;b&gt;E&lt;/b&gt;xtension bits" style="text;html=1;strokeColor=none;fillColor=none;align=center;verticalAlign=middle;whiteSpace=wrap;rounded=0;fontFamily=Computer Modern;" vertex="1" parent="1">
          <mxGeometry x="387.88" y="190" width="84.75" height="20" as="geometry" />
        </mxCell>
        <mxCell id="7AeS7Z2tnM7rHtkFox5K-34" value="&lt;b&gt;C&lt;/b&gt;ontrol bits" style="text;html=1;strokeColor=none;fillColor=none;align=center;verticalAlign=middle;whiteSpace=wrap;rounded=0;fontFamily=Computer Modern;" vertex="1" parent="1">
          <mxGeometry x="493.25" y="190" width="84.75" height="20" as="geometry" />
        </mxCell>
        <mxCell id="7AeS7Z2tnM7rHtkFox5K-35" value="Overflow" style="text;html=1;strokeColor=none;fillColor=none;align=left;verticalAlign=middle;whiteSpace=wrap;rounded=0;fontFamily=Computer Modern;" vertex="1" parent="1">
          <mxGeometry x="316" y="279.63" width="50" height="20" as="geometry" />
        </mxCell>
        <mxCell id="7AeS7Z2tnM7rHtkFox5K-36" value="Carry" style="text;html=1;strokeColor=none;fillColor=none;align=left;verticalAlign=middle;whiteSpace=wrap;rounded=0;fontFamily=Computer Modern;" vertex="1" parent="1">
          <mxGeometry x="316" y="299.63" width="50" height="20" as="geometry" />
        </mxCell>
        <mxCell id="7AeS7Z2tnM7rHtkFox5K-37" value="Zero" style="text;html=1;strokeColor=none;fillColor=none;align=left;verticalAlign=middle;whiteSpace=wrap;rounded=0;fontFamily=Computer Modern;" vertex="1" parent="1">
          <mxGeometry x="316" y="319.63" width="50" height="20" as="geometry" />
        </mxCell>
        <mxCell id="7AeS7Z2tnM7rHtkFox5K-38" value="Negative" style="text;html=1;strokeColor=none;fillColor=none;align=left;verticalAlign=middle;whiteSpace=wrap;rounded=0;fontFamily=Computer Modern;" vertex="1" parent="1">
          <mxGeometry x="316" y="339.63" width="50" height="20" as="geometry" />
        </mxCell>
        <mxCell id="7AeS7Z2tnM7rHtkFox5K-39" value="" style="endArrow=none;endFill=0;endSize=12;html=1;rounded=0;exitX=0.5;exitY=1;exitDx=0;exitDy=0;" edge="1" parent="1" source="7AeS7Z2tnM7rHtkFox5K-4">
          <mxGeometry width="160" relative="1" as="geometry">
            <mxPoint x="210" y="350" as="sourcePoint" />
            <mxPoint x="310" y="290" as="targetPoint" />
            <Array as="points">
              <mxPoint x="290" y="290" />
            </Array>
          </mxGeometry>
        </mxCell>
        <mxCell id="7AeS7Z2tnM7rHtkFox5K-40" value="" style="endArrow=none;endFill=0;endSize=12;html=1;rounded=0;exitX=0.5;exitY=1;exitDx=0;exitDy=0;" edge="1" parent="1">
          <mxGeometry width="160" relative="1" as="geometry">
            <mxPoint x="270" y="270" as="sourcePoint" />
            <mxPoint x="310" y="310" as="targetPoint" />
            <Array as="points">
              <mxPoint x="270" y="310" />
            </Array>
          </mxGeometry>
        </mxCell>
        <mxCell id="7AeS7Z2tnM7rHtkFox5K-41" value="" style="endArrow=none;endFill=0;endSize=12;html=1;rounded=0;exitX=0.5;exitY=1;exitDx=0;exitDy=0;" edge="1" parent="1" source="7AeS7Z2tnM7rHtkFox5K-2">
          <mxGeometry width="160" relative="1" as="geometry">
            <mxPoint x="280" y="280" as="sourcePoint" />
            <mxPoint x="310" y="330" as="targetPoint" />
            <Array as="points">
              <mxPoint x="250" y="330" />
            </Array>
          </mxGeometry>
        </mxCell>
        <mxCell id="7AeS7Z2tnM7rHtkFox5K-42" value="" style="endArrow=none;endFill=0;endSize=12;html=1;rounded=0;exitX=0.5;exitY=1;exitDx=0;exitDy=0;" edge="1" parent="1" source="7AeS7Z2tnM7rHtkFox5K-1">
          <mxGeometry width="160" relative="1" as="geometry">
            <mxPoint x="260" y="280" as="sourcePoint" />
            <mxPoint x="310" y="350" as="targetPoint" />
            <Array as="points">
              <mxPoint x="230" y="350" />
            </Array>
          </mxGeometry>
        </mxCell>
        <mxCell id="7AeS7Z2tnM7rHtkFox5K-45" value="" style="endArrow=none;endFill=0;endSize=12;html=1;rounded=0;exitX=0.5;exitY=1;exitDx=0;exitDy=0;" edge="1" parent="1">
          <mxGeometry width="160" relative="1" as="geometry">
            <mxPoint x="500" y="269.63" as="sourcePoint" />
            <mxPoint x="540" y="309.63" as="targetPoint" />
            <Array as="points">
              <mxPoint x="500" y="309.63" />
            </Array>
          </mxGeometry>
        </mxCell>
        <mxCell id="7AeS7Z2tnM7rHtkFox5K-46" value="" style="endArrow=none;endFill=0;endSize=12;html=1;rounded=0;exitX=0.5;exitY=1;exitDx=0;exitDy=0;" edge="1" parent="1">
          <mxGeometry width="160" relative="1" as="geometry">
            <mxPoint x="479" y="270" as="sourcePoint" />
            <mxPoint x="539" y="330" as="targetPoint" />
            <Array as="points">
              <mxPoint x="479" y="330" />
            </Array>
          </mxGeometry>
        </mxCell>
        <mxCell id="7AeS7Z2tnM7rHtkFox5K-47" value="" style="endArrow=none;endFill=0;endSize=12;html=1;rounded=0;exitX=0.5;exitY=1;exitDx=0;exitDy=0;" edge="1" parent="1">
          <mxGeometry width="160" relative="1" as="geometry">
            <mxPoint x="520" y="270" as="sourcePoint" />
            <mxPoint x="540" y="290" as="targetPoint" />
            <Array as="points">
              <mxPoint x="520" y="290" />
            </Array>
          </mxGeometry>
        </mxCell>
        <mxCell id="7AeS7Z2tnM7rHtkFox5K-48" value="Thumb/ARM mode" style="text;html=1;strokeColor=none;fillColor=none;align=left;verticalAlign=middle;whiteSpace=wrap;rounded=0;fontFamily=Computer Modern;" vertex="1" parent="1">
          <mxGeometry x="545.63" y="279.63" width="114.37" height="20" as="geometry" />
        </mxCell>
        <mxCell id="7AeS7Z2tnM7rHtkFox5K-49" value="Interrupts Enabled" style="text;html=1;strokeColor=none;fillColor=none;align=left;verticalAlign=middle;whiteSpace=wrap;rounded=0;fontFamily=Computer Modern;" vertex="1" parent="1">
          <mxGeometry x="545.63" y="299.63" width="94.37" height="20" as="geometry" />
        </mxCell>
        <mxCell id="7AeS7Z2tnM7rHtkFox5K-50" value="Fast interrupts enabled" style="text;html=1;strokeColor=none;fillColor=none;align=left;verticalAlign=middle;whiteSpace=wrap;rounded=0;fontFamily=Computer Modern;" vertex="1" parent="1">
          <mxGeometry x="545.63" y="319.63" width="132" height="20" as="geometry" />
        </mxCell>
      </root>
    </mxGraphModel>
  </diagram>
</mxfile>
